<svg xmlns="http://www.w3.org/2000/svg" version="1.1" xmlns:xlink="http://www.w3.org/1999/xlink" xmlns:svgjs="http://svgjs.dev/svgjs" width="1000" height="1000" viewBox="0 0 1000 1000"><rect width="1000" height="1000" fill="#080808"></rect><g transform="matrix(0.7,0,0,0.7,150,106.25)"><svg viewBox="0 0 320 360" data-background-color="#080808" preserveAspectRatio="xMidYMid meet" height="1125" width="1000" xmlns="http://www.w3.org/2000/svg" xmlns:xlink="http://www.w3.org/1999/xlink"><g id="tight-bounds" transform="matrix(1,0,0,1,0,0)"><svg viewBox="0 0 320 360" height="360" width="320"><rect width="320" height="360" fill="url(#71094ab6-fd8c-430f-81e1-54ca2fb223c3)" mask="url(&quot;#31651244-7cec-4ddd-af9b-26d2e6984b6a&quot;)" data-fill-palette-color="tertiary"></rect><rect width="320" height="360" fill="url(#4bfb033d-4909-4e07-a253-4a77ceac4069)" mask="url(&quot;#272e62dc-3599-447f-bcc5-5ce4bf4a6a5b&quot;)" data-fill-palette-color="primary"></rect><g><svg></svg></g><g><svg viewBox="0 0 320 360" height="360" width="320"><g><path xmlns="http://www.w3.org/2000/svg" d="M320 187.111c0-45.764-20.238-86.866-52.203-114.908-28.043-31.964-69.145-52.203-114.908-52.203-84.302 0-152.889 68.587-152.889 152.889 0 45.753 20.231 86.848 52.185 114.891 28.043 31.975 69.152 52.22 114.926 52.22 0.299 0 0.59-0.021 0.889-0.021 0.299 0 0.59 0.021 0.889 0.021 83.456 0 151.111-67.655 151.111-151.111 0-0.299-0.021-0.59-0.021-0.889 0-0.299 0.021-0.59 0.021-0.889zM59.833 263.097c-15.093-21.255-24.071-47.143-24.256-75.097 0.48-72.928 59.492-131.943 132.423-132.423 27.954 0.185 53.845 9.163 75.097 24.256 24.366 23.627 39.57 56.64 39.57 93.056 0 71.559-58.219 129.778-129.778 129.778-36.416 0-69.429-15.204-93.056-39.57zM3.556 172.889c0-82.343 66.99-149.333 149.333-149.333 35.051 0 67.292 12.167 92.8 32.462-22.98-13.824-49.863-21.796-78.578-21.796-84.302 0-152.889 68.587-152.889 152.889 0 28.708 7.968 55.584 21.785 78.56-20.288-25.5-32.452-57.739-32.451-92.782zM167.111 318.667c-35.84 0-68.363-14.418-92.107-37.743 21.952 15.89 48.864 25.298 77.885 25.298 73.522 0 133.333-59.812 133.333-133.333 0-29.02-9.408-55.932-25.298-77.885 23.324 23.744 37.742 56.267 37.743 92.107 0 72.54-59.015 131.556-131.556 131.556z" fill="url(#71094ab6-fd8c-430f-81e1-54ca2fb223c3)" fill-rule="nonzero" stroke="none" stroke-width="1" stroke-linecap="butt" stroke-linejoin="miter" stroke-miterlimit="10" stroke-dasharray="" stroke-dashoffset="0" font-family="none" font-weight="none" font-size="none" text-anchor="none" style="mix-blend-mode: normal" data-fill-palette-color="tertiary"></path></g><g transform="matrix(1,0,0,1,64,160.29050279329607)"><svg viewBox="0 0 192 39.41899441340783" height="39.41899441340783" width="192"><g><svg viewBox="0 0 192 39.41899441340783" height="39.41899441340783" width="192"><g><svg viewBox="0 0 192 39.41899441340783" height="39.41899441340783" width="192"><g id="textblocktransform"><svg viewBox="0 0 192 39.41899441340783" height="39.41899441340783" width="192" id="textblock"><g><svg viewBox="0 0 192 39.41899441340783" height="39.41899441340783" width="192"><g transform="matrix(1,0,0,1,0,0)"><svg width="192" viewBox="2.5 -29.399999618530273 144.58999633789062 29.399999618530273" height="39.41899441340783" data-palette-color="url(#4bfb033d-4909-4e07-a253-4a77ceac4069)"><g class="undefined-text-0" data-fill-palette-color="primary" id="text-0"></g></svg></g></svg></g></svg></g></svg></g></svg></g></svg></g></svg></g><defs></defs><mask id="272e62dc-3599-447f-bcc5-5ce4bf4a6a5b"><g id="SvgjsG1446"><svg viewBox="0 0 320 360" height="360" width="320"><g><svg></svg></g><g><svg viewBox="0 0 320 360" height="360" width="320"><g></g><g transform="matrix(1,0,0,1,64,160.29050279329607)"><svg viewBox="0 0 192 39.41899441340783" height="39.41899441340783" width="192"><g><svg viewBox="0 0 192 39.41899441340783" height="39.41899441340783" width="192"><g><svg viewBox="0 0 192 39.41899441340783" height="39.41899441340783" width="192"><g id="SvgjsG1445"><svg viewBox="0 0 192 39.41899441340783" height="39.41899441340783" width="192" id="SvgjsSvg1444"><g><svg viewBox="0 0 192 39.41899441340783" height="39.41899441340783" width="192"><g transform="matrix(1,0,0,1,0,0)"><svg width="192" viewBox="2.5 -29.399999618530273 144.58999633789062 29.399999618530273" height="39.41899441340783" data-palette-color="url(#4bfb033d-4909-4e07-a253-4a77ceac4069)"><g class="undefined-text-0" data-fill-palette-color="primary" id="SvgjsG1443"><path d="M29.3 0L2.5 0 2.5-4.85 24.7-24.6 2.5-24.6 2.5-29.4 33.55-29.4 33.55-24.6 10.9-4.8 33.3-4.8 35.3-0.55Q35.3-0.35 33.95-0.18 32.6 0 29.3 0L29.3 0ZM63.85 0L49.25 0Q45.75 0 43.75-1 41.75-2 40.92-4 40.1-6 40.1-8.95L40.1-8.95 40.1-20.5Q40.1-23.4 40.9-25.38 41.7-27.35 43.7-28.38 45.7-29.4 49.25-29.4L49.25-29.4 63.85-29.4Q67.35-29.4 69.32-28.38 71.3-27.35 72.12-25.38 72.95-23.4 72.95-20.5L72.95-20.5 72.95-8.95Q72.95-4.55 71-2.27 69.05 0 63.85 0L63.85 0ZM50.7-4.8L50.7-4.8 62.45-4.8Q64.3-4.8 65.32-5.75 66.35-6.7 66.35-8.35L66.35-8.35 66.35-21.1Q66.35-22.55 65.3-23.58 64.25-24.6 62.45-24.6L62.45-24.6 50.7-24.6Q48.9-24.6 47.8-23.65 46.7-22.7 46.7-21.1L46.7-21.1 46.7-8.35Q46.7-6.65 47.77-5.73 48.85-4.8 50.7-4.8ZM104.25 0L80.45 0 80.95-4 80.95-29.4 87.55-29.4 87.55-4.8 108.25-4.8 110.25-0.55Q110.25-0.35 108.9-0.18 107.55 0 104.25 0L104.25 0ZM137.99 0L123.39 0Q119.89 0 117.89-1 115.89-2 115.07-4 114.24-6 114.24-8.95L114.24-8.95 114.24-20.5Q114.24-23.4 115.04-25.38 115.84-27.35 117.84-28.38 119.84-29.4 123.39-29.4L123.39-29.4 137.99-29.4Q141.49-29.4 143.47-28.38 145.44-27.35 146.27-25.38 147.09-23.4 147.09-20.5L147.09-20.5 147.09-8.95Q147.09-4.55 145.14-2.27 143.19 0 137.99 0L137.99 0ZM124.84-4.8L124.84-4.8 136.59-4.8Q138.44-4.8 139.47-5.75 140.49-6.7 140.49-8.35L140.49-8.35 140.49-21.1Q140.49-22.55 139.44-23.58 138.39-24.6 136.59-24.6L136.59-24.6 124.84-24.6Q123.04-24.6 121.94-23.65 120.84-22.7 120.84-21.1L120.84-21.1 120.84-8.35Q120.84-6.65 121.92-5.73 122.99-4.8 124.84-4.8Z" fill="white"></path></g></svg></g></svg></g></svg></g></svg></g></svg></g></svg></g></svg></g><defs><mask></mask></defs></svg></g></mask><linearGradient x1="0" x2="1" y1="0.548" y2="0.55" id="4bfb033d-4909-4e07-a253-4a77ceac4069"><stop stop-color="#ff6cab" offset="0"></stop><stop stop-color="#7366ff" offset="1"></stop></linearGradient><mask id="31651244-7cec-4ddd-af9b-26d2e6984b6a"><g id="SvgjsG1454"><svg viewBox="0 0 320 360" height="360" width="320"><g><svg></svg></g><g><svg viewBox="0 0 320 360" height="360" width="320"><g><path xmlns="http://www.w3.org/2000/svg" d="M320 187.111c0-45.764-20.238-86.866-52.203-114.908-28.043-31.964-69.145-52.203-114.908-52.203-84.302 0-152.889 68.587-152.889 152.889 0 45.753 20.231 86.848 52.185 114.891 28.043 31.975 69.152 52.22 114.926 52.22 0.299 0 0.59-0.021 0.889-0.021 0.299 0 0.59 0.021 0.889 0.021 83.456 0 151.111-67.655 151.111-151.111 0-0.299-0.021-0.59-0.021-0.889 0-0.299 0.021-0.59 0.021-0.889zM59.833 263.097c-15.093-21.255-24.071-47.143-24.256-75.097 0.48-72.928 59.492-131.943 132.423-132.423 27.954 0.185 53.845 9.163 75.097 24.256 24.366 23.627 39.57 56.64 39.57 93.056 0 71.559-58.219 129.778-129.778 129.778-36.416 0-69.429-15.204-93.056-39.57zM3.556 172.889c0-82.343 66.99-149.333 149.333-149.333 35.051 0 67.292 12.167 92.8 32.462-22.98-13.824-49.863-21.796-78.578-21.796-84.302 0-152.889 68.587-152.889 152.889 0 28.708 7.968 55.584 21.785 78.56-20.288-25.5-32.452-57.739-32.451-92.782zM167.111 318.667c-35.84 0-68.363-14.418-92.107-37.743 21.952 15.89 48.864 25.298 77.885 25.298 73.522 0 133.333-59.812 133.333-133.333 0-29.02-9.408-55.932-25.298-77.885 23.324 23.744 37.742 56.267 37.743 92.107 0 72.54-59.015 131.556-131.556 131.556z" fill="white" fill-rule="nonzero" stroke="none" stroke-width="1" stroke-linecap="butt" stroke-linejoin="miter" stroke-miterlimit="10" stroke-dasharray="" stroke-dashoffset="0" font-family="none" font-weight="none" font-size="none" text-anchor="none" style="mix-blend-mode: normal"></path></g><g transform="matrix(1,0,0,1,64,160.29050279329607)"><svg viewBox="0 0 192 39.41899441340783" height="39.41899441340783" width="192"><g><svg viewBox="0 0 192 39.41899441340783" height="39.41899441340783" width="192"><g><svg viewBox="0 0 192 39.41899441340783" height="39.41899441340783" width="192"><g id="SvgjsG1453"><svg viewBox="0 0 192 39.41899441340783" height="39.41899441340783" width="192" id="SvgjsSvg1452"><g><svg viewBox="0 0 192 39.41899441340783" height="39.41899441340783" width="192"><g transform="matrix(1,0,0,1,0,0)"><svg width="192" viewBox="2.5 -29.399999618530273 144.58999633789062 29.399999618530273" height="39.41899441340783" data-palette-color="url(#4bfb033d-4909-4e07-a253-4a77ceac4069)"><g class="undefined-text-0" data-fill-palette-color="primary" id="SvgjsG1451"></g></svg></g></svg></g></svg></g></svg></g></svg></g></svg></g></svg></g><defs><mask></mask></defs><mask><g id="SvgjsG1450"><svg viewBox="0 0 320 360" height="360" width="320"><g><svg></svg></g><g><svg viewBox="0 0 320 360" height="360" width="320"><g></g><g transform="matrix(1,0,0,1,64,160.29050279329607)"><svg viewBox="0 0 192 39.41899441340783" height="39.41899441340783" width="192"><g><svg viewBox="0 0 192 39.41899441340783" height="39.41899441340783" width="192"><g><svg viewBox="0 0 192 39.41899441340783" height="39.41899441340783" width="192"><g id="SvgjsG1449"><svg viewBox="0 0 192 39.41899441340783" height="39.41899441340783" width="192" id="SvgjsSvg1448"><g><svg viewBox="0 0 192 39.41899441340783" height="39.41899441340783" width="192"><g transform="matrix(1,0,0,1,0,0)"><svg width="192" viewBox="2.5 -29.399999618530273 144.58999633789062 29.399999618530273" height="39.41899441340783" data-palette-color="url(#4bfb033d-4909-4e07-a253-4a77ceac4069)"><g class="undefined-text-0" data-fill-palette-color="primary" id="SvgjsG1447"></g></svg></g></svg></g></svg></g></svg></g></svg></g></svg></g></svg></g><defs><mask></mask></defs></svg></g></mask></svg></g></mask><linearGradient x1="0" x2="1" y1="0.548" y2="0.55" id="71094ab6-fd8c-430f-81e1-54ca2fb223c3"><stop stop-color="#ff6cab" offset="0"></stop><stop stop-color="#7366ff" offset="1"></stop></linearGradient></svg><rect width="320" height="360" fill="none" stroke="none" visibility="hidden"></rect></g></svg></g></svg>